<?xml version="1.0" encoding="utf-8"?>
<!-- Generator: Adobe Illustrator 26.4.1, SVG Export Plug-In . SVG Version: 6.00 Build 0)  -->
<svg version="1.1" xmlns="http://www.w3.org/2000/svg" xmlns:xlink="http://www.w3.org/1999/xlink" x="0px" y="0px"
	 viewBox="0 0 1359 3387" style="enable-background:new 0 0 1359 3387;" xml:space="preserve">
<style type="text/css">
	.st0{fill:#FFFBE6;}
	.st1{fill:#FFF6D2;}
	.st2{fill:#F2BCD0;}
	.st3{fill:#FDC0B9;}
	.st4{fill:#FBA2B0;}
	.st5{fill:#BDEDEF;}
	.st6{fill:#FDFFB0;}
	.st7{fill:#FFD7FA;}
	.st8{fill:#F7F5C1;}
	.st9{fill:#DEF9FC;stroke:#07779E;stroke-miterlimit:10;}
	.st10{fill:#534741;}
	.st11{fill:#FFFFFF;}
	.st12{fill:#FFFFFF;stroke:#07779E;stroke-width:4.2222;stroke-miterlimit:10;}
	.st13{fill:#FFFFFF;stroke:#07779E;stroke-width:1.1946;stroke-miterlimit:10;}
	.st14{fill:#FFFFFF;stroke:#07779E;stroke-width:1.1964;stroke-miterlimit:10;}
	.st15{fill:#FFFFFF;stroke:#07779E;stroke-width:1.1987;stroke-miterlimit:10;}
</style>
<g id="фон">
	<path class="st2" d="M586.05-5c0,0-30.05,213.55,245.95,252.59s213,260.25,318,384.38s217.42-80.12,217.42-80.12L1371-5H586.05z"/>
</g>
<g id="фоновые_узоры">
	<g id="каталог">
	</g>
	<path class="st8" d="M1368.66,2177.63c0.11,67.86-86.41,96.54-126.86,42.06C1095.05,2022.05,895.71,1695.66,1076,1578
		c190-124-1.78-474.04,110-542c125-76,181,151,181,151L1368.66,2177.63z"/>
	<path class="st3" d="M-4,2808.49c0,0,267-376.41,542,48.83s395,192.52,395,192.52s147-261.97,253,106.01
		s174.51,155.99,174.51,155.99L1364,3391H1L-4,2808.49z"/>
</g>
<g id="текст">
</g>
<g id="картинки">
</g>
</svg>
